<svg width="21" height="21" viewBox="0 0 21 21" fill="none" xmlns="http://www.w3.org/2000/svg">
<path d="M18.0298 11.4631C18.0715 11.1506 18.0923 10.8276 18.0923 10.4839C18.0923 10.1506 18.0715 9.81722 18.0194 9.50472L20.134 7.85889C20.3215 7.71305 20.3736 7.4318 20.259 7.22347L18.259 3.76514C18.134 3.53597 17.8736 3.46305 17.6444 3.53597L15.1548 4.53597C14.634 4.14014 14.0819 3.8068 13.4673 3.5568L13.0923 0.91097C13.0506 0.66097 12.8423 0.483887 12.5923 0.483887H8.59232C8.34232 0.483887 8.1444 0.66097 8.10273 0.91097L7.72773 3.5568C7.11315 3.8068 6.55065 4.15055 6.04023 4.53597L3.55065 3.53597C3.32148 3.45264 3.06107 3.53597 2.93607 3.76514L0.946485 7.22347C0.821485 7.44222 0.863151 7.71305 1.07148 7.85889L3.18607 9.50472C3.13398 9.81722 3.09232 10.161 3.09232 10.4839C3.09232 10.8068 3.11315 11.1506 3.16523 11.4631L1.05065 13.1089C0.863151 13.2547 0.811068 13.536 0.925651 13.7443L2.92565 17.2026C3.05065 17.4318 3.31107 17.5047 3.54023 17.4318L6.02982 16.4318C6.55065 16.8276 7.10273 17.161 7.71732 17.411L8.09232 20.0568C8.1444 20.3068 8.34232 20.4839 8.59232 20.4839H12.5923C12.8423 20.4839 13.0506 20.3068 13.0819 20.0568L13.4569 17.411C14.0715 17.161 14.634 16.8276 15.1444 16.4318L17.634 17.4318C17.8631 17.5151 18.1236 17.4318 18.2486 17.2026L20.2486 13.7443C20.3736 13.5151 20.3215 13.2547 20.1236 13.1089L18.0298 11.4631ZM10.5923 14.2339C8.52982 14.2339 6.84232 12.5464 6.84232 10.4839C6.84232 8.42139 8.52982 6.73389 10.5923 6.73389C12.6548 6.73389 14.3423 8.42139 14.3423 10.4839C14.3423 12.5464 12.6548 14.2339 10.5923 14.2339Z" fill="black"/>
</svg>
